<svg width="25" height="24" viewBox="0 0 25 24" fill="none" xmlns="http://www.w3.org/2000/svg">
<g id="flat-color-icons:google">
<path id="Vector" d="M22.3055 10.0413H21.5V9.99976H12.5V13.9998H18.1515C17.327 16.3283 15.1115 17.9998 12.5 17.9998C9.1865 17.9998 6.5 15.3133 6.5 11.9998C6.5 8.68626 9.1865 5.99976 12.5 5.99976C14.0295 5.99976 15.421 6.57676 16.4805 7.51926L19.309 4.69076C17.523 3.02626 15.134 1.99976 12.5 1.99976C6.9775 1.99976 2.5 6.47726 2.5 11.9998C2.5 17.5223 6.9775 21.9998 12.5 21.9998C18.0225 21.9998 22.5 17.5223 22.5 11.9998C22.5 11.3293 22.431 10.6748 22.3055 10.0413Z" fill="#FFC107"/>
<path id="Vector_2" d="M3.65283 7.34526L6.93833 9.75476C7.82733 7.55376 9.98033 5.99976 12.4998 5.99976C14.0293 5.99976 15.4208 6.57676 16.4803 7.51926L19.3088 4.69076C17.5228 3.02626 15.1338 1.99976 12.4998 1.99976C8.65883 1.99976 5.32783 4.16826 3.65283 7.34526Z" fill="#FF3D00"/>
<path id="Vector_3" d="M12.5002 21.9997C15.0832 21.9997 17.4302 21.0112 19.2047 19.4037L16.1097 16.7847C15.0719 17.5739 13.8039 18.0008 12.5002 17.9997C9.89916 17.9997 7.69066 16.3412 6.85866 14.0267L3.59766 16.5392C5.25266 19.7777 8.61366 21.9997 12.5002 21.9997Z" fill="#4CAF50"/>
<path id="Vector_4" d="M22.3055 10.0417H21.5V10.0002H12.5V14.0002H18.1515C17.7571 15.1085 17.0467 16.0768 16.108 16.7857L16.1095 16.7847L19.2045 19.4037C18.9855 19.6027 22.5 17.0002 22.5 12.0002C22.5 11.3297 22.431 10.6752 22.3055 10.0417Z" fill="#1976D2"/>
</g>
</svg>
