<svg width="32" height="32" viewBox="0 0 32 32" fill="none" xmlns="http://www.w3.org/2000/svg">
<g id="Frame 1152">
<rect width="32" height="32" fill="#F7F7F7"/>
<g id="Group">
<path id="Vector" d="M16.0002 9.33325C17.8115 9.33325 18.0375 9.33992 18.7482 9.37325C19.4582 9.40659 19.9415 9.51792 20.3668 9.68325C20.8068 9.85259 21.1775 10.0819 21.5482 10.4519C21.8872 10.7852 22.1495 11.1883 22.3168 11.6333C22.4815 12.0579 22.5935 12.5419 22.6268 13.2519C22.6582 13.9626 22.6668 14.1886 22.6668 15.9999C22.6668 17.8113 22.6602 18.0373 22.6268 18.7479C22.5935 19.4579 22.4815 19.9413 22.3168 20.3666C22.1499 20.8118 21.8876 21.215 21.5482 21.5479C21.2148 21.8868 20.8117 22.1491 20.3668 22.3166C19.9422 22.4813 19.4582 22.5933 18.7482 22.6266C18.0375 22.6579 17.8115 22.6666 16.0002 22.6666C14.1888 22.6666 13.9628 22.6599 13.2522 22.6266C12.5422 22.5933 12.0588 22.4813 11.6335 22.3166C11.1884 22.1496 10.7852 21.8872 10.4522 21.5479C10.1131 21.2147 9.85078 20.8116 9.6835 20.3666C9.51816 19.9419 9.40683 19.4579 9.3735 18.7479C9.34216 18.0373 9.3335 17.8113 9.3335 15.9999C9.3335 14.1886 9.34016 13.9626 9.3735 13.2519C9.40683 12.5413 9.51816 12.0586 9.6835 11.6333C9.85032 11.188 10.1127 10.7848 10.4522 10.4519C10.7853 10.1127 11.1884 9.8504 11.6335 9.68325C12.0588 9.51792 12.5415 9.40659 13.2522 9.37325C13.9628 9.34192 14.1888 9.33325 16.0002 9.33325ZM16.0002 12.6666C15.1161 12.6666 14.2683 13.0178 13.6431 13.6429C13.018 14.268 12.6668 15.1159 12.6668 15.9999C12.6668 16.884 13.018 17.7318 13.6431 18.3569C14.2683 18.9821 15.1161 19.3333 16.0002 19.3333C16.8842 19.3333 17.7321 18.9821 18.3572 18.3569C18.9823 17.7318 19.3335 16.884 19.3335 15.9999C19.3335 15.1159 18.9823 14.268 18.3572 13.6429C17.7321 13.0178 16.8842 12.6666 16.0002 12.6666ZM20.3335 12.4999C20.3335 12.2789 20.2457 12.0669 20.0894 11.9107C19.9331 11.7544 19.7212 11.6666 19.5002 11.6666C19.2791 11.6666 19.0672 11.7544 18.9109 11.9107C18.7546 12.0669 18.6668 12.2789 18.6668 12.4999C18.6668 12.7209 18.7546 12.9329 18.9109 13.0892C19.0672 13.2455 19.2791 13.3333 19.5002 13.3333C19.7212 13.3333 19.9331 13.2455 20.0894 13.0892C20.2457 12.9329 20.3335 12.7209 20.3335 12.4999ZM16.0002 13.9999C16.5306 13.9999 17.0393 14.2106 17.4144 14.5857C17.7894 14.9608 18.0002 15.4695 18.0002 15.9999C18.0002 16.5304 17.7894 17.0391 17.4144 17.4141C17.0393 17.7892 16.5306 17.9999 16.0002 17.9999C15.4697 17.9999 14.961 17.7892 14.5859 17.4141C14.2109 17.0391 14.0002 16.5304 14.0002 15.9999C14.0002 15.4695 14.2109 14.9608 14.5859 14.5857C14.961 14.2106 15.4697 13.9999 16.0002 13.9999Z" fill="#594636"/>
</g>
</g>
</svg>
