<svg width="46" height="28" viewBox="0 0 46 28" fill="none" xmlns="http://www.w3.org/2000/svg">
<path d="M0 12.1592C0 6.16173 4.10759 1.08111 9.69248 0.202504C14.0523 -0.4851 17.5834 1.11931 20.4299 4.59553C20.6461 4.86293 20.6461 5.01573 20.4299 5.28313C18.4842 7.76614 16.5385 10.2492 14.5928 12.694C13.4398 14.1456 11.5301 14.604 9.98073 13.8018C9.11598 13.3816 8.61154 12.694 8.39535 11.7008C8.35931 11.4716 8.28725 11.2806 8.64757 11.3952C9.18804 11.548 9.58439 11.2424 9.9447 10.8604C10.5572 10.211 11.0617 9.44695 11.6022 8.75935C12.3588 7.80434 13.1155 6.81114 13.8721 5.89433C14.1244 5.58873 14.0523 5.51233 13.728 5.39773C9.83661 3.90792 5.44076 6.58194 4.75616 10.9368C3.9995 15.4826 7.3144 19.57 11.6742 19.4554C13.2596 19.4172 14.6648 18.7678 15.9259 17.6982C17.3312 16.4376 18.4481 14.9478 19.4931 13.3816C21.3307 10.6694 23.1322 7.91894 25.0419 5.24493C27.2038 2.18891 30.0143 0.393504 33.5814 0.0497028C36.8963 -0.255899 39.8509 0.851907 42.301 3.25852C44.9313 5.85613 46.1924 9.10315 45.9762 12.8468C45.6159 19.0734 41.2921 23.2754 36.4639 24.154C34.1219 24.5742 31.8879 24.2686 29.726 23.2372C29.4017 23.0844 29.2216 23.1608 29.0054 23.4282C28.2127 24.4978 27.384 25.5292 26.5552 26.5606C25.4022 28.0504 23.3845 28.4324 21.8351 27.4774C21.1145 27.0572 20.6461 26.3696 20.4659 25.5292C20.3938 25.3 20.3578 25.109 20.7542 25.1854C21.3307 25.3382 21.763 24.9562 22.1234 24.4978C24.1772 21.862 26.231 19.2644 28.2847 16.6286C28.537 16.323 28.6811 16.2466 28.9694 16.5522C29.4017 16.9724 29.8341 17.3544 30.3025 17.7364C32.5004 19.6464 34.9506 19.9138 37.4728 18.6532C40.031 17.3544 41.3642 15.1006 41.3282 12.0828C41.2921 9.02675 39.8869 6.77294 37.2566 5.58873C34.6623 4.40452 32.2122 4.86293 30.0503 6.81114C28.7171 7.99534 27.7803 9.52335 26.8075 11.0132C25.4022 13.1906 24.1051 15.4444 22.5557 17.469C21.4388 18.9588 20.2137 20.4104 18.8085 21.5946C15.3494 24.4596 11.458 25.2236 7.35043 23.5046C3.13474 21.7856 0.720631 18.424 0.0720631 13.6872C0 13.1906 0 12.694 0 12.1592Z" fill="#7D5B43"/>
</svg>
