<svg width="55" height="22" viewBox="0 0 55 22" fill="none" xmlns="http://www.w3.org/2000/svg">
<g id="PWA" clip-path="url(#clip0_5840_10487)">
<path id="image 141 (Traced)" fillRule="evenodd" clipRule="evenodd" d="M3 9.98779V19.4878H5.1873H7.37466L7.38913 16.204L7.40366 12.9203L9.70366 12.8897C11.8927 12.8606 12.0158 12.8529 12.2561 12.7306C12.3949 12.6599 12.5502 12.5499 12.6012 12.4862C12.6521 12.4225 13.3048 10.3521 14.0518 7.88527C15.5989 2.77537 15.5069 3.29423 15.0041 2.51456C14.512 1.75138 13.783 1.20576 12.7518 0.828754C11.8448 0.49714 11.6914 0.487793 7.17192 0.487793H3V9.98779ZM23.1283 1.35837C22.9851 1.83722 22.426 3.69977 21.8858 5.49744C21.3456 7.29511 20.6473 9.62508 20.334 10.6751C20.0208 11.7252 19.7553 12.5843 19.744 12.5843C19.7163 12.5843 19.0618 11.2228 18.0483 9.0571L17.2126 7.2711L16.5771 9.42366C16.2276 10.6076 15.7066 12.3594 15.4193 13.3166L14.8968 15.0571L15.1645 15.5465C15.3117 15.8158 15.8344 16.7993 16.3259 17.732L17.2196 19.428L19.4535 19.4121L21.6874 19.3962L22.0809 18.1132C23.4472 13.6569 25.0126 8.63574 25.0497 8.59065C25.0737 8.56145 25.1861 8.86386 25.2995 9.26268C25.4128 9.6615 26.1162 12.1047 26.8626 14.692L28.2197 19.3962L30.4943 19.4121L32.769 19.428L33.6178 17.1211C34.0847 15.8523 34.848 13.797 35.314 12.5537C36.3761 9.72008 38.1729 4.89567 39.0912 2.41223L39.7915 0.51834L37.4589 0.502394C36.1761 0.493597 35.1173 0.496407 35.1061 0.508564C35.0879 0.528481 33.3594 4.99702 31.2623 10.446C30.8291 11.5716 30.4572 12.5135 30.4359 12.539C30.4032 12.578 29.2734 8.58301 27.4469 1.9693L27.0378 0.487854L25.2132 0.487793H23.3885L23.1283 1.35837ZM42.3088 1.07508C42.1978 1.37371 41.6889 2.74244 41.1779 4.11679C40.6669 5.49109 40.2488 6.6612 40.2488 6.71711C40.2488 6.8019 40.7284 8.28598 41.9018 11.8324C42.004 12.1413 42.0736 12.4093 42.0564 12.4281C42.0392 12.4468 41.1757 12.4621 40.1375 12.4621H38.2499L38.1176 12.8134C38.0448 13.0066 37.766 13.729 37.498 14.4187C37.2299 15.1084 36.9929 15.7336 36.9712 15.808L36.9318 15.9433L40.0011 15.9591L43.0704 15.9749L43.6659 17.7161L44.2613 19.4572L46.6307 19.4732C48.097 19.483 49 19.467 49 19.4312C49 19.3993 48.1942 17.0416 47.2092 14.1917C46.2243 11.342 44.7642 7.10273 43.9645 4.77122L42.5106 0.532208L42.3088 1.07508ZM10.7549 4.47547C11.2268 4.72956 11.4406 4.9721 11.6664 5.50929C11.9408 6.16207 11.9684 7.00186 11.743 7.84489C11.6449 8.21151 11.5833 8.31867 11.2806 8.64832C10.9848 8.97041 10.8728 9.04836 10.55 9.15692C10.2059 9.2727 10.0323 9.28522 8.77216 9.28522H7.37561V6.74612V4.20709L8.85131 4.22603L10.3271 4.24503L10.7549 4.47547Z" fill="#A07E62"/>
</g>
<defs>
<clipPath id="clip0_5840_10487">
<rect width="55" height="21" fill="white" transform="translate(0 0.487793)"/>
</clipPath>
</defs>
</svg>
